<svg width="23" height="22" viewBox="0 0 23 22" fill="none" xmlns="http://www.w3.org/2000/svg">
<path fill-rule="evenodd" clip-rule="evenodd" d="M8.65834 1.83337H14.3142C16.7983 1.83337 18.8058 2.81421 18.8333 5.30754V19.2225C18.8333 19.3784 18.7967 19.5342 18.7233 19.6717C18.6042 19.8917 18.4025 20.0567 18.155 20.13C17.9167 20.2034 17.6508 20.1667 17.4308 20.0384L11.4908 17.0684L5.54167 20.0384C5.40509 20.1108 5.24834 20.1575 5.09251 20.1575C4.57917 20.1575 4.16667 19.7359 4.16667 19.2225V5.30754C4.16667 2.81421 6.18334 1.83337 8.65834 1.83337ZM8.03501 8.81837H14.9375C15.3317 8.81837 15.6525 8.49662 15.6525 8.09421C15.6525 7.69087 15.3317 7.37004 14.9375 7.37004H8.03501C7.64084 7.37004 7.32001 7.69087 7.32001 8.09421C7.32001 8.49662 7.64084 8.81837 8.03501 8.81837Z" fill="#D1D5DB"/>
</svg>
